<?xml version="1.0" standalone="no"?>
<!DOCTYPE svg PUBLIC "-//W3C//DTD SVG 20010904//EN"
 "http://www.w3.org/TR/2001/REC-SVG-20010904/DTD/svg10.dtd">
<svg version="1.0" xmlns="http://www.w3.org/2000/svg"
 width="800.000000pt" height="800.000000pt" viewBox="0 0 800.000000 800.000000"
 preserveAspectRatio="xMidYMid meet">
<metadata>
Created by potrace 1.14, written by Peter Selinger 2001-2017
</metadata>
<g transform="translate(0.000000,800.000000) scale(0.100000,-0.100000)"
fill="#000000" stroke="none">
<path d="M2670 6670 l0 -190 -190 0 -190 0 -2 -382 -3 -383 -192 -3 -193 -2 0
-570 0 -570 385 0 385 0 0 190 0 190 380 0 380 0 0 190 0 190 -190 0 -190 0 0
190 0 190 190 0 190 0 0 195 0 195 380 0 380 0 2 -382 3 -383 188 -3 187 -2 0
-190 0 -190 -190 0 -190 0 0 -190 0 -190 760 0 760 0 0 190 0 190 -380 0 -380
0 0 190 0 190 -190 0 -190 0 0 385 0 385 570 0 570 0 0 190 0 190 -570 0 -570
0 0 190 0 190 -950 0 -950 0 0 -190z m0 -1340 l0 -380 -190 0 -190 0 0 380 0
380 190 0 190 0 0 -380z"/>
<path d="M2290 4000 l0 -190 -195 0 -196 0 3 -190 3 -190 -192 0 -193 0 0
-190 0 -190 385 0 385 0 0 -190 0 -190 190 0 190 0 0 -190 0 -190 -180 0 c-99
0 -183 0 -187 0 -5 0 -10 -172 -13 -382 l-5 -383 -192 -3 -193 -2 0 -190 0
-190 -190 0 -190 0 0 -190 0 -190 765 0 765 0 0 380 0 380 760 0 760 0 0 -380
0 -380 765 0 765 0 0 190 0 190 -195 0 -195 0 0 190 0 190 -187 2 -188 3 -1
380 0 380 -190 0 -189 0 -3 193 -2 192 190 0 190 0 0 190 0 190 385 0 385 0 0
190 0 190 -195 0 -195 0 0 190 0 190 -570 0 -570 0 0 190 0 190 -1140 0 -1140
0 0 -190z m760 -1144 l0 -193 -169 -1 c-93 0 -179 2 -190 5 -20 5 -21 12 -21
194 l0 189 190 0 190 0 0 -194z m1898 4 l-3 -191 -185 0 -185 -1 -3 191 -2
191 190 0 190 0 -2 -190z"/>
</g>
</svg>
